<svg width="106" height="102" viewBox="0 0 106 102" fill="none" xmlns="http://www.w3.org/2000/svg">
<path d="M52.5538 20.3373C46.2764 20.4124 40.1623 22.2698 34.9808 25.6757C29.7993 29.0816 25.7819 33.8839 23.4337 39.4784C21.0856 45.0729 20.5117 51.2096 21.7844 57.1167C23.057 63.0239 26.1192 68.4374 30.5858 72.6763C35.0524 76.9152 40.724 79.7902 46.8868 80.9394C53.0497 82.0887 59.4287 81.4609 65.2212 79.1351C71.0137 76.8093 75.9609 72.8894 79.4406 67.8685C82.9203 62.8476 84.777 56.95 84.777 50.9176C84.7238 42.7565 81.299 34.95 75.256 29.2151C69.2131 23.4803 61.047 20.2868 52.5538 20.3373Z" fill="#00EDBE"/>
<path d="M52.5538 20.3373C46.2764 20.4124 40.1623 22.2698 34.9808 25.6757C29.7993 29.0816 25.7819 33.8839 23.4337 39.4784C21.0856 45.0729 20.5117 51.2096 21.7844 57.1167C23.057 63.0239 26.1192 68.4374 30.5858 72.6763C35.0524 76.9152 40.724 79.7902 46.8868 80.9394C53.0497 82.0887 59.4287 81.4609 65.2212 79.1351C71.0137 76.8093 75.9609 72.8894 79.4406 67.8685C82.9203 62.8476 84.777 56.95 84.777 50.9176C84.7238 42.7565 81.299 34.95 75.256 29.2151C69.2131 23.4803 61.047 20.2868 52.5538 20.3373Z" fill="#00EDBE"/>
<path d="M65.2905 39.6066C65.2043 38.0775 65.5924 36.5581 66.4058 35.2412H40.4304C40.1976 35.2404 39.967 35.2837 39.7516 35.3685C39.5362 35.4534 39.3403 35.5782 39.1751 35.7358C39.0099 35.8934 38.8786 36.0807 38.7887 36.2871C38.6989 36.4935 38.6522 36.7148 38.6514 36.9385V42.2738C38.6522 42.4974 38.6989 42.7188 38.7887 42.9251C38.8786 43.1315 39.0099 43.3188 39.1751 43.4764C39.3403 43.634 39.5362 43.7588 39.7516 43.8437C39.967 43.9286 40.1976 43.9718 40.4304 43.971H66.4058C65.5924 42.6541 65.2043 41.1348 65.2905 39.6056" fill="#141BEB"/>
<path d="M34.6108 50.9968C34.6955 52.526 34.3059 54.045 33.4912 55.3612H59.4666C59.6994 55.362 59.9301 55.3187 60.1455 55.2338C60.3609 55.149 60.5568 55.0242 60.722 54.8666C60.8872 54.709 61.0184 54.5216 61.1083 54.3153C61.1982 54.1089 61.2448 53.8876 61.2457 53.6639V48.3286C61.2448 48.1049 61.1982 47.8836 61.1083 47.6772C61.0184 47.4709 60.8872 47.2835 60.722 47.1259C60.5568 46.9683 60.3609 46.8435 60.1455 46.7587C59.9301 46.6738 59.6994 46.6306 59.4666 46.6314H33.4912C34.3046 47.9483 34.6928 49.4676 34.6066 50.9968" fill="#141BEB"/>
<path d="M65.2905 62.4028C65.2043 60.8736 65.5924 59.3543 66.4058 58.0374H40.4304C40.1976 58.0366 39.967 58.0798 39.7516 58.1647C39.5362 58.2495 39.3403 58.3743 39.1751 58.5319C39.0099 58.6896 38.8786 58.8769 38.7887 59.0832C38.6989 59.2896 38.6522 59.5109 38.6514 59.7346V65.0699C38.6522 65.2936 38.6989 65.5149 38.7887 65.7213C38.8786 65.9276 39.0099 66.115 39.1751 66.2726C39.3403 66.4302 39.5362 66.555 39.7516 66.6398C39.967 66.7247 40.1976 66.768 40.4304 66.7672H66.4058C65.5924 65.4502 65.2043 63.9309 65.2905 62.4017" fill="#141BEB"/>
</svg>
